{
  "accessors": [
    {
      "bufferView": 2,
      "componentType": 5126,
      "count": 15463,
      "max": [
        9.727778434753418,
        10.069717407226562,
        13.579209327697754
      ],
      "min": [
        -9.727778434753418,
        -10.069716453552246,
        -13.579209327697754
      ],
      "type": "VEC3"
    },
    {
      "bufferView": 2,
      "byteOffset": 185556,
      "componentType": 5126,
      "count": 15463,
      "max": [
        0.99998211860656738,
        0.99999570846557617,
        0.9999469518661499
      ],
      "min": [
        -0.99998646974563599,
        -0.99968820810317993,
        -0.99997889995574951
      ],
      "type": "VEC3"
    },
    {
      "bufferView": 3,
      "componentType": 5126,
      "count": 15463,
      "max": [
        0.99974572658538818,
        0.99999350309371948,
        0.96510010957717896,
        1
      ],
      "min": [
        -0.99771696329116821,
        -0.99999690055847168,
        -0.99975931644439697,
        1
      ],
      "type": "VEC4"
    },
    {
      "bufferView": 1,
      "componentType": 5126,
      "count": 15463,
      "max": [
        0.99029231071472168,
        0.99799996614456177
      ],
      "min": [
        0.0020000000949949026,
        0.0020000000949949026
      ],
      "type": "VEC2"
    },
    {
      "bufferView": 0,
      "componentType": 5125,
      "count": 90006,
      "max": [
        15462
      ],
      "min": [
        0
      ],
      "type": "SCALAR"
    }
  ],
  "asset": {
    "extras": {
      "author": "3dhdscan (https://sketchfab.com/3dhdscan)",
      "license": "CC-BY-4.0 (http://creativecommons.org/licenses/by/4.0/)",
      "source": "https://sketchfab.com/models/8a08e2306d4341998760a80bde04a099",
      "title": "Stone black 3"
    },
    "generator": "Sketchfab-3.19.6",
    "version": "2.0"
  },
  "bufferViews": [
    {
      "buffer": 0,
      "byteLength": 360024,
      "byteOffset": 0,
      "name": "floatBufferViews",
      "target": 34963
    },
    {
      "buffer": 0,
      "byteLength": 123704,
      "byteOffset": 360024,
      "byteStride": 8,
      "name": "floatBufferViews",
      "target": 34962
    },
    {
      "buffer": 0,
      "byteLength": 371112,
      "byteOffset": 483728,
      "byteStride": 12,
      "name": "floatBufferViews",
      "target": 34962
    },
    {
      "buffer": 0,
      "byteLength": 247408,
      "byteOffset": 854840,
      "byteStride": 16,
      "name": "floatBufferViews",
      "target": 34962
    }
  ],
  "buffers": [
    {
      "byteLength": 1102248,
      "uri": "scene.bin"
    }
  ],
  "images": [
    {
      "uri": "textures/sutr16_metallicRoughness.png"
    },
    {
      "uri": "textures/sutr16_normal.jpeg"
    },
    {
      "uri": "textures/sutr16_baseColor.jpeg"
    }
  ],
  "materials": [
    {
      "doubleSided": true,
      "emissiveFactor": [
        0,
        0,
        0
      ],
      "name": "sutr16",
      "normalTexture": {
        "index": 1,
        "scale": 1,
        "texCoord": 0
      },
      "occlusionTexture": {
        "index": 0,
        "strength": 1,
        "texCoord": 0
      },
      "pbrMetallicRoughness": {
        "baseColorFactor": [
          1,
          1,
          1,
          1
        ],
        "baseColorTexture": {
          "index": 2,
          "texCoord": 0
        },
        "metallicFactor": 0,
        "roughnessFactor": 0.69950457320000003
      }
    }
  ],
  "meshes": [
    {
      "name": "sutr16_sutr16_0",
      "primitives": [
        {
          "attributes": {
            "NORMAL": 1,
            "POSITION": 0,
            "TANGENT": 2,
            "TEXCOORD_0": 3
          },
          "indices": 4,
          "material": 0,
          "mode": 4
        }
      ]
    }
  ],
  "nodes": [
    {
      "children": [
        1
      ],
      "name": "RootNode (gltf orientation matrix)",
      "rotation": [
        -0.70710678118654746,
        -0,
        -0,
        0.70710678118654757
      ]
    },
    {
      "children": [
        2
      ],
      "matrix": [
        0.13707152009010315,
        0,
        0.99056112766265869,
        0,
        0,
        1,
        0,
        0,
        -0.99056112766265869,
        0,
        0.13707152009010315,
        0,
        -0.66029924154281616,
        0,
        -1.2833858728408813,
        1
      ],
      "name": "RootNode (model correction matrix)"
    },
    {
      "children": [
        3
      ],
      "matrix": [
        1,
        0,
        0,
        0,
        0,
        -1,
        0,
        0,
        0,
        0,
        -1,
        0,
        0,
        0,
        0,
        1
      ],
      "name": "sutr16.FBX"
    },
    {
      "children": [
        4
      ],
      "name": "RootNode"
    },
    {
      "children": [
        5
      ],
      "matrix": [
        1,
        0,
        0,
        0,
        0,
        1,
        0,
        0,
        0,
        0,
        1,
        0,
        0.40645980834960938,
        -9.7732419967651367,
        1.0206880569458008,
        1
      ],
      "name": "sutr16"
    },
    {
      "mesh": 0,
      "name": "sutr16_sutr16_0"
    }
  ],
  "samplers": [
    {
      "magFilter": 9729,
      "minFilter": 9987,
      "wrapS": 10497,
      "wrapT": 10497
    }
  ],
  "scene": 0,
  "scenes": [
    {
      "name": "OSG_Scene",
      "nodes": [
        0
      ]
    }
  ],
  "textures": [
    {
      "sampler": 0,
      "source": 0
    },
    {
      "sampler": 0,
      "source": 1
    },
    {
      "sampler": 0,
      "source": 2
    }
  ]
}

